<?xml version="1.0" encoding="UTF-8" standalone="no"?><!-- Created with Inkscape (http://www.inkscape.org/) --><svg xmlns:dc="http://purl.org/dc/elements/1.1/" xmlns:cc="http://creativecommons.org/ns#" xmlns:rdf="http://www.w3.org/1999/02/22-rdf-syntax-ns#" xmlns:svg="http://www.w3.org/2000/svg" xmlns="http://www.w3.org/2000/svg" xmlns:s="http://sodipodi.sourceforge.net/DTD/sodipodi-0.dtd" xmlns:i="http://www.inkscape.org/namespaces/inkscape" width="63.999996" height="64.000023" viewBox="0 0 64.000003 64.000023" id="svg2" version="1.1" i:version="0.91 r13725" s:docname="Grass.svg">
  <defs id="defs4"/>
  <s:namedview id="base" pagecolor="#ffffff" bordercolor="#666666" borderopacity="1.0" i:pageopacity="0.0" i:pageshadow="2" i:zoom="2.3413653" i:cx="39.858067" i:cy="14.21499" i:document-units="px" i:current-layer="layer1" showgrid="true" i:snap-bbox="false" i:object-nodes="true" i:window-width="1600" i:window-height="839" i:window-x="0" i:window-y="0" i:window-maximized="1" units="px" fit-margin-top="0" fit-margin-left="0" fit-margin-right="0" fit-margin-bottom="0">
    <i:grid type="xygrid" id="grid4140" empspacing="4" originx="-35.994508" originy="-920.00111"/>
  </s:namedview>
  <metadata id="metadata7">
    <rdf:RDF>
      <cc:Work rdf:about="">
        <dc:format>image/svg+xml</dc:format>
        <dc:type rdf:resource="http://purl.org/dc/dcmitype/StillImage"/>
        <dc:title/>
      </cc:Work>
    </rdf:RDF>
  </metadata>
  <g i:label="Layer 1" i:groupmode="layer" id="layer1" transform="translate(-35.994505,-68.361068)">
    <g id="g4237" transform="matrix(0.57009587,0,0,0.62167016,26.950965,37.291386)">
      <path s:nodetypes="cccc" i:connector-curvature="0" id="p0" d="M 64,115 C 64,73 96,50 108,51 96,54 80,75 80,117 Z" style="fill:#008000;fill-opacity:1;fill-rule:evenodd;stroke:#000000;stroke-width:1.12815213;stroke-linecap:butt;stroke-linejoin:miter;stroke-miterlimit:4;stroke-dasharray:none;stroke-opacity:1"/>
      <path s:nodetypes="cccc" i:connector-curvature="0" id="p1" d="M 80,128 C 80,80 46,55 32,56 c 14,4 32,23 32,71 z" style="fill:#008000;fill-opacity:1;fill-rule:evenodd;stroke:#000000;stroke-width:1.12815213;stroke-linecap:butt;stroke-linejoin:miter;stroke-miterlimit:4;stroke-dasharray:none;stroke-opacity:1"/>
      <path s:nodetypes="cccc" i:connector-curvature="0" id="p2" d="M 64,132 C 64,97 104,76 124,76 104,79 84,97 84,132 Z" style="fill:#008000;fill-opacity:1;fill-rule:evenodd;stroke:#000000;stroke-width:1.12815213;stroke-linecap:butt;stroke-linejoin:miter;stroke-miterlimit:4;stroke-dasharray:none;stroke-opacity:1"/>
      <path s:nodetypes="cccc" i:connector-curvature="0" id="p3" d="m 74,152 c 0,-48 -42,-77 -58,-76 16,4 42,28 42,76 z" style="fill:#008000;fill-opacity:1;fill-rule:evenodd;stroke:#000000;stroke-width:1.12815213;stroke-linecap:butt;stroke-linejoin:miter;stroke-miterlimit:4;stroke-dasharray:none;stroke-opacity:1"/>
      <path s:nodetypes="cccc" i:connector-curvature="0" id="p4" d="M 68,152 C 68,109 112,96 128,96 112,100 84,109 84,152 Z" style="color:#000000;clip-rule:nonzero;display:inline;overflow:visible;visibility:visible;opacity:1;isolation:auto;mix-blend-mode:normal;color-interpolation:sRGB;color-interpolation-filters:linearRGB;solid-color:#000000;solid-opacity:1;fill:#008000;fill-opacity:1;fill-rule:evenodd;stroke:#000000;stroke-width:1.12815213;stroke-linecap:butt;stroke-linejoin:miter;stroke-miterlimit:4;stroke-dasharray:none;stroke-dashoffset:0;stroke-opacity:1;color-rendering:auto;image-rendering:auto;shape-rendering:auto;text-rendering:auto;enable-background:accumulate"/>
      <path s:nodetypes="cccc" i:connector-curvature="0" id="p5" d="m 74,152 c 0,-28 38,-36 54,-36 -16,2 -38,7 -38,36 z" style="fill:#008000;fill-opacity:1;fill-rule:evenodd;stroke:#000000;stroke-width:1.12815213;stroke-linecap:butt;stroke-linejoin:miter;stroke-miterlimit:4;stroke-dasharray:none;stroke-opacity:1"/>
      <path s:nodetypes="cccc" i:connector-curvature="0" id="p6" d="m 74,152 c 0,-22 -34,-40 -50,-40 17,2 33,18 33,40 z" style="fill:#008000;fill-opacity:1;fill-rule:evenodd;stroke:#000000;stroke-width:1.12815213;stroke-linecap:butt;stroke-linejoin:miter;stroke-miterlimit:4;stroke-dasharray:none;stroke-opacity:1"/>
    </g>
  </g>
</svg>